# xmcd
#
# Track frame offsets: 
#        150
#        14912
#        29667
#        43902
#        60309
#        74488
#        89937
#        105296
#        119235
#        134467
#        148767
#        162127
#        176069
#        191876
#        207528
#        222780
#        238437
#        251996
#        266733
#        280805
#        296419
#        311823
#        327275
#
# Disc length: 4537 seconds
#
# Revision: 2
# Processed by: cddbd v1.5.2PL0 Copyright (c) Steve Scherf et al.
# Submitted via: ExactAudioCopyFreeDBPlugin 1.0
#
DISCID=8b11b717
DTITLE=Bessie Smith - The Complete Recordings [Frog Records]
DYEAR=2002
DGENRE=Blues
TTITLE0=Soft Pedal Blues (take 1)
TTITLE1=Soft Pedal Blues (take 2)
TTITLE2=Dixie Flyer Blues
TTITLE3=Nashville Women's Blues (take 2)
TTITLE4=Nashville Women's Blues (take 3)
TTITLE5=Careless Love (take 1)
TTITLE6=Careless Love (take 2)
TTITLE7=J.C. Holmes Blues
TTITLE8=I Ain't Gonna Play No Second Fiddle
TTITLE9=He's Gone Blues
TTITLE10=Nobody's Blues But Mine
TTITLE11=I Ain't Got Nobody
TTITLE12=My Man Blues (with Clara Smith)
TTITLE13=New Gulf Coast Blues
TTITLE14=Florida Bound Blues
TTITLE15=At the Christmas Ball
TTITLE16=I've Been Mistreated and I Don't Like It
TTITLE17=Red Mountain Blues
TTITLE18=Golden Rule Blues
TTITLE19=Lonesome Desert Blues
TTITLE20=Squeeze Me
TTITLE21=Them "Has Been" Blues
TTITLE22=Squeeze Me
EXTD=
EXTT0=
EXTT1=
EXTT2=
EXTT3=
EXTT4=
EXTT5=
EXTT6=
EXTT7=
EXTT8=
EXTT9=
EXTT10=
EXTT11=
EXTT12=
EXTT13=
EXTT14=
EXTT15=
EXTT16=
EXTT17=
EXTT18=
EXTT19=
EXTT20=
EXTT21=
EXTT22=
PLAYORDER=
